<?xml version="1.0" encoding="UTF-8"?>
<svg width="30px" height="30px" viewBox="0 0 30 30" version="1.1" xmlns="http://www.w3.org/2000/svg" xmlns:xlink="http://www.w3.org/1999/xlink">
    <!-- Generator: Sketch 52.4 (67378) - http://www.bohemiancoding.com/sketch -->
    <title>bank</title>
    <desc>Created with Sketch.</desc>
    <g id="Final-Flows" stroke="none" stroke-width="1" fill="none" fill-rule="evenodd">
        <g id="Wallet_Redeem" transform="translate(-816.000000, -355.000000)" fill="#4C4C4C" fill-rule="nonzero">
            <g id="nEUR-wallet" transform="translate(791.000000, 183.000000)">
                <g id="bank" transform="translate(25.000000, 172.000000)">
                    <path d="M29.6314061,9.31309644 L19.7145765,2.89083668 C19.516588,2.76261914 19.2529158,2.82029934 19.1255914,3.01946707 C18.998267,3.21869377 19.0554546,3.48409347 19.2533845,3.61231101 L29.0252529,9.94067825 L26.7472421,9.94067825 L15.6234383,2.7367869 C15.2447464,2.49155759 14.7553122,2.49161656 14.3765617,2.7367869 L3.2527579,9.94067825 L0.974747073,9.94067825 L14.9994727,0.857403202 L16.9857448,2.14370705 C17.1837334,2.27186562 17.447347,2.21430337 17.57473,2.01507667 C17.7020544,1.81584996 17.6448668,1.55045027 17.4469368,1.42223273 L15.4606647,0.135928877 C15.1808206,-0.0453096256 14.819238,-0.0453096256 14.5393939,0.135928877 L0.368593928,9.31309644 C0.0668357161,9.50854857 -0.0679300872,9.87267695 0.0332614529,10.21923 C0.134452993,10.565783 0.443535433,10.798627 0.802364033,10.798627 L2.95182,10.798627 L2.95182,12.2771982 L2.95182,13.5721128 C2.95182,13.9135347 3.19240626,14.1994587 3.5118598,14.2671061 L3.5118598,15.0220798 C3.5118598,15.4136918 3.82838366,15.7322894 4.21744668,15.7322894 L4.2760405,15.7322894 L4.2760405,20.987911 C4.2760405,21.2248245 4.466822,21.4168559 4.70219341,21.4168559 C4.93756482,21.4168559 5.12834632,21.2248245 5.12834632,20.987911 L5.12834632,15.3033445 C5.12834632,15.066431 4.93756482,14.8743996 4.70219341,14.8743996 L4.36422421,14.8743996 L4.36422421,14.2822634 L7.38256805,14.2822634 L7.38256805,14.8742816 L7.04459885,14.8742816 C6.80922745,14.8742816 6.61844594,15.0663131 6.61844594,15.3032265 L6.61844594,24.7807086 C6.61844594,25.017622 6.80922745,25.2096535 7.04459885,25.2096535 L7.38256805,25.2096535 L7.38256805,25.8533952 L4.36422421,25.8533952 L4.36422421,25.2096535 L4.70219341,25.2096535 C4.93756482,25.2096535 5.12834632,25.017622 5.12834632,24.7807086 L5.12834632,23.684313 C5.12834632,23.4473995 4.93756482,23.2553681 4.70219341,23.2553681 C4.466822,23.2553681 4.2760405,23.4473995 4.2760405,23.684313 L4.2760405,24.3517637 L4.21744668,24.3517637 C3.82838366,24.3517637 3.5118598,24.6703023 3.5118598,25.0619143 L3.5118598,25.816888 C3.19234766,25.8845354 2.95182,26.1704593 2.95182,26.5118813 L2.95182,27.377792 L1.44220863,27.377792 C0.971114256,27.377792 0.58785203,27.7635652 0.58785203,28.237746 L0.58785203,29.140046 C0.58785203,29.6142268 0.971114256,30 1.44220863,30 L28.5577914,30 C29.0288857,30 29.412148,29.6142268 29.412148,29.140046 L29.412148,28.237746 C29.412148,27.7635652 29.0288857,27.377792 28.5577914,27.377792 L27.04818,27.377792 L27.04818,26.5118813 C27.04818,26.1704593 26.8075937,25.8845354 26.4881402,25.816888 L26.4881402,25.0619143 C26.4881402,24.6703023 26.1716163,24.3517637 25.7825533,24.3517637 L25.7239595,24.3517637 L25.7239595,15.7321714 L25.7825533,15.7321714 C26.1716163,15.7321714 26.4881402,15.4135738 26.4881402,15.0219618 L26.4881402,14.2669882 C26.8076523,14.1993407 27.04818,13.9134168 27.04818,13.5719948 L27.04818,12.2770802 L27.04818,10.798509 L29.197636,10.798509 C29.5564646,10.798509 29.865547,10.565665 29.9667385,10.219112 C30.0679301,9.87267695 29.9331643,9.5084896 29.6314061,9.31309644 Z M14.8376951,3.45826123 C14.9363085,3.39438837 15.0636915,3.39444735 15.1623049,3.45826123 L25.1720642,9.94073723 L4.82799436,9.94073723 L14.8376951,3.45826123 Z M3.80412582,10.798568 L26.1958156,10.798568 L26.1958156,11.8481943 L21.6312392,11.8481943 L17.4953939,11.8481943 L12.5046061,11.8481943 L8.36876076,11.8481943 L3.80412582,11.8481943 L3.80412582,10.798568 Z M17.3615656,25.8170059 L17.3615656,25.0620323 C17.3615656,24.6704203 17.0450418,24.3518817 16.6559788,24.3518817 L16.5973849,24.3518817 L16.5973849,15.7322894 L16.6559788,15.7322894 C17.0450418,15.7322894 17.3615656,15.4136918 17.3615656,15.0220798 L17.3615656,14.2671061 C17.6810778,14.1994587 17.9216054,13.9135347 17.9216054,13.5721128 L17.9216054,12.7061431 L21.2050863,12.7061431 L21.2050863,13.5721128 C21.2050863,13.9135347 21.4456726,14.1994587 21.7651261,14.2671061 L21.7651261,15.0220798 C21.7651261,15.4136918 22.08165,15.7322894 22.470713,15.7322894 L22.5293068,15.7322894 L22.5293068,24.3518817 L22.470713,24.3518817 C22.08165,24.3518817 21.7651261,24.6704203 21.7651261,25.0620323 L21.7651261,25.8170059 C21.4456726,25.8846534 21.2050863,26.1705773 21.2050863,26.5119993 L21.2050863,27.37791 L17.9216054,27.37791 L17.9216054,26.5119993 C17.9216054,26.1705773 17.6810192,25.8846534 17.3615656,25.8170059 Z M8.23487386,25.8170059 L8.23487386,25.0620323 C8.23487386,24.6704203 7.91835001,24.3518817 7.52928699,24.3518817 L7.47069317,24.3518817 L7.47069317,15.7322894 L7.52928699,15.7322894 C7.91835001,15.7322894 8.23487386,15.4136918 8.23487386,15.0220798 L8.23487386,14.2671061 C8.55432741,14.1994587 8.79491367,13.9135347 8.79491367,13.5721128 L8.79491367,12.7061431 L12.0784532,12.7061431 L12.0784532,13.5721128 C12.0784532,13.9135347 12.3190394,14.1994587 12.638493,14.2671061 L12.638493,15.0220798 C12.638493,15.4136918 12.9550168,15.7322894 13.3440798,15.7322894 L13.4026737,15.7322894 L13.4026737,24.3518817 L13.3440798,24.3518817 C12.9550168,24.3518817 12.638493,24.6704203 12.638493,25.0620323 L12.638493,25.8170059 C12.3190394,25.8846534 12.0784532,26.1705773 12.0784532,26.5119993 L12.0784532,27.37791 L8.79491367,27.37791 L8.79491367,26.5119993 C8.79491367,26.1705773 8.55432741,25.8846534 8.23487386,25.8170059 Z M16.171232,25.2096535 L16.5092012,25.2096535 L16.5092012,25.8533952 L13.4908574,25.8533952 L13.4908574,25.2096535 L13.8288266,25.2096535 C14.064198,25.2096535 14.2549795,25.017622 14.2549795,24.7807086 L14.2549795,15.3032855 C14.2549795,15.066372 14.064198,14.8742816 13.8288266,14.8742816 L13.4908574,14.8742816 L13.4908574,14.2822634 L16.5092012,14.2822634 L16.5092012,14.8742816 L16.171232,14.8742816 C15.9358606,14.8742816 15.7450791,15.0663131 15.7450791,15.3032265 L15.7450791,24.7807086 C15.7450791,25.017622 15.9358606,25.2096535 16.171232,25.2096535 Z M13.0646459,13.4243736 L13.0627709,13.4243736 L12.930759,13.4243736 L12.930759,12.7061431 L17.069241,12.7061431 L17.069241,13.4243736 L16.9353541,13.4243736 C16.9350612,13.4243736 16.9347096,13.4244326 16.9344166,13.4244326 C16.9341237,13.4244326 16.9337721,13.4243736 16.9334791,13.4243736 L13.0646459,13.4243736 Z M12.930759,26.6901709 C12.9723606,26.7037948 13.0166575,26.7114029 13.0627709,26.7114029 L16.9334205,26.7114029 C16.9809401,26.7114029 17.0265261,26.703205 17.069241,26.6887555 L17.069241,27.377851 L12.930759,27.377851 L12.930759,26.6901709 Z M3.93807131,13.4243736 L3.80418441,13.4243736 L3.80418441,12.7061431 L7.94266645,12.7061431 L7.94266645,13.4243736 L7.94260785,13.4243736 L7.80872096,13.4243736 L3.93807131,13.4243736 Z M3.80412582,26.6894632 C3.84625478,26.7034999 3.89119624,26.7114029 3.93801271,26.7114029 L7.80872096,26.7114029 C7.85553742,26.7114029 7.90047889,26.7034999 7.94260785,26.6894632 L7.94260785,27.377851 L3.80412582,27.377851 L3.80412582,26.6894632 Z M28.5598422,28.237805 L28.5586703,29.1421102 C28.5586703,29.1421102 28.5584359,29.1421692 28.5577914,29.1421692 L1.44015785,29.140164 L1.44220863,28.2357998 L28.5598422,28.237805 Z M26.0607568,26.7113439 C26.108042,26.7113439 26.1533351,26.703264 26.1958742,26.6889914 L26.1958742,27.377851 L22.0573921,27.377851 L22.0573921,26.689876 C22.0991695,26.7036768 22.1437009,26.7113439 22.1901072,26.7113439 L26.0607568,26.7113439 Z M22.9554011,14.8743406 L22.617432,14.8743406 L22.617432,14.2822634 L25.6357758,14.2822634 L25.6357758,14.8742816 L25.2978066,14.8742816 C25.0624352,14.8742816 24.8716537,15.0663131 24.8716537,15.3032265 L24.8716537,24.7807086 C24.8716537,25.017622 25.0624352,25.2097124 25.2978066,25.2097124 L25.6357758,25.2097124 L25.6357758,25.8534542 L22.617432,25.8534542 L22.617432,25.2097124 L22.9554011,25.2097124 C23.1907726,25.2097124 23.3815541,25.017681 23.3815541,24.7807676 L23.3815541,15.3032855 C23.3815541,15.066372 23.1907726,14.8743406 22.9554011,14.8743406 Z M26.1959328,13.4243736 L26.0619873,13.4243736 C26.0618115,13.4243736 26.0615771,13.4244326 26.0614014,13.4244326 C26.0612256,13.4244326 26.0609912,13.4243736 26.0608154,13.4243736 L22.1913376,13.4243736 L22.1901658,13.4243736 L22.0574507,13.4243736 L22.0574507,12.7061431 L26.1959328,12.7061431 L26.1959328,13.4243736 Z" id="Shape"></path>
                </g>
            </g>
        </g>
    </g>
</svg>